<svg xmlns="http://www.w3.org/2000/svg" xmlns:xlink="http://www.w3.org/1999/xlink" width="168" height="80" viewBox="0 0 168 80"><defs><clipPath id="a"><rect width="168" height="80" transform="translate(139 3490)" fill="#fff"/></clipPath></defs><g transform="translate(-139 -3490)" clip-path="url(#a)"><g transform="translate(136.164 3470.83)"><g transform="translate(21.837 46.17)"><path d="M33.377,46.17l-.266,4.585-2.266-.08c-.053-.953-.1-1.873-.156-2.826H27.163v6.758H28.69l.357-1.488h1.574v4.649H29.076l-.389-1.537H27.17V63.4h3.544l.343-3.1,2.385.079c.062,1.595.123,3.16.185,4.753h-11.6V63.469l1.629-.28V48.018l-1.82-.2V46.17Z" transform="translate(-21.837 -46.17)" fill="#e50019" fill-rule="evenodd"/><path d="M324.2,97.7c.031-.463.059-.877.087-1.3l1.23-.272V79.949l-1.459-.221V78.377l3.86-.536.4,1.446a1.607,1.607,0,0,0,.155-.139,3.924,3.924,0,0,1,3.543-1.323,3.562,3.562,0,0,1,3.179,2.833,10.044,10.044,0,0,1,.413,2.163,16.715,16.715,0,0,1-.151,4.493,8.022,8.022,0,0,1-.477,1.613,4.009,4.009,0,0,1-3.58,2.538,4.985,4.985,0,0,1-2.5-.364,1.352,1.352,0,0,0-.188-.05v5.08l1.312.271c-.029.428-.057.853-.087,1.3Zm4.489-8.458a4.028,4.028,0,0,0,3.03.1.512.512,0,0,0,.365-.383c.122-.5.275-1,.348-1.513a21.571,21.571,0,0,0,.078-4.666,7.057,7.057,0,0,0-.3-1.568,1.773,1.773,0,0,0-2.233-1.337c-.057.01-.112.027-.169.038a1.326,1.326,0,0,0-1.123,1.355q0,3.79,0,7.579Z" transform="translate(-271.611 -72.31)" fill="#e50019" fill-rule="evenodd"/><path d="M520.051,89.633l1.359.272c-.025.469-.049.909-.074,1.375h-4.417c0-.1-.014-.2-.014-.292,0-2.935.009-5.871-.008-8.806a4.007,4.007,0,0,0-.214-1.18,1.222,1.222,0,0,0-.988-.812,2.156,2.156,0,0,0-1.319.112.962.962,0,0,0-.661.879c-.008,2.776,0,5.552,0,8.329a.739.739,0,0,0,.032.127l1.3.265c-.028.454-.055.907-.084,1.38h-5.694V89.909l1.27-.273V80.089l-1.452-.166V78.516l3.754-.537.336,1.222c.284-.215.578-.47.9-.676a4.305,4.305,0,0,1,3.943-.428,2.987,2.987,0,0,1,1.949,2.506,6.074,6.074,0,0,1,.078.992q.01,3.774,0,7.548Z" transform="translate(-424.531 -72.316)" fill="#e50019" fill-rule="evenodd"/><path d="M99.708,89.7l1.309.266-.082,1.377H95.182c.024-.453.048-.891.073-1.372l1.22-.266c.091-.31.114-9.068.018-9.556l-1.448-.162v-1.4l3.763-.539.341,1.25c.105-.093.224-.2.348-.308a4.422,4.422,0,0,1,4.1-.952,3,3,0,0,1,2.329,2.518,5.3,5.3,0,0,1,.093,1.033c.007,2.53,0,5.059,0,7.589V89.7l1.353.266c-.011.231-.026.455-.032.679s0,.456,0,.705h-4.445v-.5q0-4.163,0-8.326a6.6,6.6,0,0,0-.079-.992,1.4,1.4,0,0,0-1.349-1.3,1.6,1.6,0,0,0-1.541.466.986.986,0,0,0-.24.668c.01,2.11.005,4.221.005,6.331,0,.52,0,1.041,0,1.561C99.688,89.4,99.7,89.543,99.708,89.7Z" transform="translate(-82.341 -72.385)" fill="#e50019" fill-rule="evenodd"/><path d="M650.982,79.982l-1.459-.145V78.6l4.3-.49a4.983,4.983,0,0,1,.361,1.576c-.013,3.224-.006,6.448-.006,9.672v.522l1.334.274-.141,1.373h-3.7l-.348-1.066c-.121.095-.211.156-.291.229a4.373,4.373,0,0,1-4.824.614,3.1,3.1,0,0,1-1.727-2.4,6.367,6.367,0,0,1-.089-1.077c-.008-2.429,0-4.858,0-7.287v-.545l-1.464-.158V78.6l4.275-.5a5.959,5.959,0,0,1,.326,1.43q-.01,3.817,0,7.634a8,8,0,0,0,.068,1.035,1.594,1.594,0,0,0,1.659,1.5,3.937,3.937,0,0,0,.981-.137,1.377,1.377,0,0,0,.795-1.04q0-4.207,0-8.414A.71.71,0,0,0,650.982,79.982Z" transform="translate(-535.144 -72.563)" fill="#e50019" fill-rule="evenodd"/><path d="M267.688,85.366a4.88,4.88,0,0,0,.743,2.88,2.521,2.521,0,0,0,2.155,1.162,6.041,6.041,0,0,0,2.486-.494c.1-.044.212-.083.357-.14l.539,1.235c-.235.159-.457.34-.705.474a6.486,6.486,0,0,1-5.059.646,4.9,4.9,0,0,1-3.1-2.828,9.151,9.151,0,0,1-.728-4.741,8.435,8.435,0,0,1,.725-2.884,4.739,4.739,0,0,1,3.413-2.867,4.405,4.405,0,0,1,4.23,1.03,5.5,5.5,0,0,1,1.385,2.511,10.61,10.61,0,0,1,.383,2.954,3.515,3.515,0,0,1-.3.982Zm3.943-1.708c-.035-.4-.054-.732-.095-1.059a5.863,5.863,0,0,0-.634-2.231,1.473,1.473,0,0,0-1.909-.728.993.993,0,0,0-.67.608,10.006,10.006,0,0,0-.7,3.327,1.33,1.33,0,0,0,.048.268Z" transform="translate(-222.251 -72.2)" fill="#e50019" fill-rule="evenodd"/><path d="M592.468,85.281l-6.526.079a4.395,4.395,0,0,0,.108,1.339,3.844,3.844,0,0,0,.812,1.793,2.467,2.467,0,0,0,1.888.909,5.737,5.737,0,0,0,2.412-.432c.158-.065.319-.124.514-.2l.539,1.253c-.071.047-.143.092-.214.142a6.585,6.585,0,0,1-4.6,1.164,4.868,4.868,0,0,1-4.158-3.295,9.393,9.393,0,0,1,.069-7.264,4.646,4.646,0,0,1,3.43-2.965,4.59,4.59,0,0,1,3.736.6,4.7,4.7,0,0,1,1.668,2.267,9.246,9.246,0,0,1,.6,3.61A4.306,4.306,0,0,1,592.468,85.281Zm-2.6-1.627a9.817,9.817,0,0,0-.4-2.562,3.615,3.615,0,0,0-.606-1.134c-.513-.664-2.1-.529-2.349.38a17.543,17.543,0,0,0-.549,2.215,4.049,4.049,0,0,0-.051,1.284Z" transform="translate(-485.241 -72.195)" fill="#e50019" fill-rule="evenodd"/><path d="M458.839,85.241l-6.532.081a4.711,4.711,0,0,0,.94,3.129,2.425,2.425,0,0,0,1.844.908,5.79,5.79,0,0,0,2.456-.428c.158-.065.318-.127.509-.2l.531,1.228c-.152.112-.292.23-.446.326a6.553,6.553,0,0,1-4.859.927,4.819,4.819,0,0,1-3.462-2.765,8.865,8.865,0,0,1-.836-4.676,8.774,8.774,0,0,1,.745-3.142,4.752,4.752,0,0,1,2.555-2.588,4.858,4.858,0,0,1,4.266.134,4.353,4.353,0,0,1,1.89,2.243,9.561,9.561,0,0,1,.693,3.811A3.743,3.743,0,0,1,458.839,85.241Zm-2.587-1.629c-.039-.435-.061-.82-.111-1.2a5.561,5.561,0,0,0-.6-2.062,1.493,1.493,0,0,0-2.059-.707A.842.842,0,0,0,453,80.1a8.942,8.942,0,0,0-.686,2.667c-.039.323-.058.648-.091,1.035Z" transform="translate(-374.836 -72.155)" fill="#e50019" fill-rule="evenodd"/><path d="M215.74,78.722l.294,1.175c.153-.093.307-.189.464-.281a7.337,7.337,0,0,1,2.959-.9,1.129,1.129,0,0,1,1.158.533c-.129,1.153-.26,2.326-.4,3.538l-2.126-.087-.233-1.894a2.744,2.744,0,0,0-1.356.473v9.111l1.317.3c-.025.444-.049.87-.075,1.329h-5.682v-1.32l1.188-.3V80.825l-1.367-.158v-1.41Z" transform="translate(-178.905 -73.057)" fill="#e50019" fill-rule="evenodd"/><path d="M719.336,91.991c.021-.466.041-.9.061-1.343l1.178-.291V80.794l-1.391-.169v-1.4l3.872-.534.286,1.117a16.438,16.438,0,0,1,1.642-.74,14.382,14.382,0,0,1,1.729-.377,1.074,1.074,0,0,1,1.216.528l-.394,3.527-2.122-.079c-.082-.649-.16-1.273-.248-1.965l-1.337.466v9.188l1.314.3-.085,1.34Z" transform="translate(-598.172 -73.02)" fill="#e50019" fill-rule="evenodd"/><path d="M402.465,80.723l-1.354.5v9.169l1.343.3-.111,1.332h-5.668V90.7l1.2-.305V80.826l-1.385-.159V79.26l3.844-.539.326,1.143c.373-.2.737-.4,1.113-.579a7.438,7.438,0,0,1,2.214-.565,1.175,1.175,0,0,1,1.236.516l-.388,3.543-2.13-.078C402.629,82.051,402.554,81.44,402.465,80.723Z" transform="translate(-331.479 -73.057)" fill="#e50019" fill-rule="evenodd"/><path d="M170.073,64.228v2.689h2.364l-.148,1.688-2.125.243a2.845,2.845,0,0,0-.042.343q0,3.879.01,7.758a3.855,3.855,0,0,0,.024.519.979.979,0,0,0,1,.9c.431.013.862,0,1.345,0l.141,1.392a2.714,2.714,0,0,1-1.072.36,6.679,6.679,0,0,1-2.41.07,2.507,2.507,0,0,1-2.184-2.288,6.856,6.856,0,0,1-.031-.779q0-3.9,0-7.8c0-.154-.02-.309-.032-.47l-1.493-.249c.024-.539.048-1.066.074-1.646l1.682-.082.75-2.534Z" transform="translate(-140.497 -61.094)" fill="#e50019" fill-rule="evenodd"/></g></g></g></svg>