<svg xmlns="http://www.w3.org/2000/svg" xmlns:xlink="http://www.w3.org/1999/xlink" width="90" height="90" viewBox="0 0 90 90"><defs><clipPath id="a"><rect width="90" height="90" rx="45" transform="translate(9.114 8.814)" fill="#e4e4e4"/></clipPath></defs><g transform="translate(-9.114 -8.814)" clip-path="url(#a)"><g transform="translate(28.925 28.625)"><g transform="translate(-0.277 -0.277)"><g transform="translate(0.467 0.467)" fill="none" stroke="#005897" stroke-width="3.4"><circle cx="25" cy="25" r="25" stroke="none"/><circle cx="25" cy="25" r="23.3" fill="none"/></g><g transform="translate(3.766 3.766)"><path d="M15.571,33.931a33.685,33.685,0,0,0-4.583,3.7,10.492,10.492,0,0,0-2.322,4.715A21.5,21.5,0,0,1,4,28.949c0-.113,0-.226.009-.339.069,2.274,1.562,4.679,5.243,4.679A51.609,51.609,0,0,1,15.571,33.931Z" transform="translate(-4 -7.248)" fill="rgba(0,88,151,0.3)"/><path d="M46.606,19.893a9.059,9.059,0,0,0-16.614-.026,9.319,9.319,0,0,0-.642,5.581,7.082,7.082,0,0,0-4.427-.417,2.361,2.361,0,0,0-1.276.911,3.6,3.6,0,0,0-.5-.373,4.487,4.487,0,0,0-2.257-.72,2.877,2.877,0,0,0-.391-.017H10.123c-.868,0,0-3.472-3.472-3.472-1.467,0-2.465,1.536-2.621,3.316a21.681,21.681,0,0,1,21.2-20.667C25.383,4,25.548,4,25.7,4a22.149,22.149,0,0,1,3.507.278,21.7,21.7,0,0,1,17.4,15.616Z" transform="translate(-4.004 -4)" fill="rgba(0,88,151,0.3)"/><path d="M39.114,48.66a24.677,24.677,0,0,0,3.373-4.206,13.362,13.362,0,0,0,1.2-3.88v-.009c.069-.373.13-.712.191-1.024v-.009a3.089,3.089,0,0,1,.8-1.745,1.834,1.834,0,0,1,.417-.278c2.2-1.1,5-2.838,6.076-5.208a19.009,19.009,0,0,0,.842-4.592q.026.56.026,1.12A21.679,21.679,0,0,1,39.114,48.66Z" transform="translate(-8.634 -7.129)" fill="rgba(0,88,151,0.3)"/></g><path d="M28.845,20.371c0,2.387-1.753,4.1-3.429,5.2A14.417,14.417,0,0,1,22.4,27.055a.8.8,0,0,1-.278.043.868.868,0,0,1-.825-.59.881.881,0,0,1,.547-1.1c.017-.009.573-.2,1.319-.556,1.554-.764,3.949-2.292,3.949-4.479,0-1.684-.729-2.335-1.736-3.238a6.453,6.453,0,0,1-2.6-5.442A8.311,8.311,0,0,1,27.5,4.009C27.656,4,27.821,4,27.977,4a22.149,22.149,0,0,1,3.507.278L28.3,5.554a6.571,6.571,0,0,0-3.793,6.137,4.765,4.765,0,0,0,2.031,4.158A5.462,5.462,0,0,1,28.845,20.371Z" transform="translate(-2.51 -0.234)" fill="#5449bf"/><path d="M47.376,26.15v.017a19.009,19.009,0,0,1-.842,4.592c-1.076,2.37-3.88,4.106-6.076,5.208a1.834,1.834,0,0,0-.417.278,3.089,3.089,0,0,0-.8,1.745V38c-.061.312-.122.651-.191,1.024v.009a13.362,13.362,0,0,1-1.2,3.88,24.984,24.984,0,0,1-3.385,4.219A21.417,21.417,0,0,1,25.7,48.987,21.642,21.642,0,0,1,8.663,40.7a10.494,10.494,0,0,1,2.326-4.731,33.685,33.685,0,0,1,4.583-3.7,51.608,51.608,0,0,0-6.319-.642c-3.68,0-5.173-2.4-5.243-4.679,0-.226.009-.46.017-.686.156-1.779,1.154-3.316,2.621-3.316,3.472,0,2.6,3.472,3.472,3.472H20.494a4.613,4.613,0,0,1,3.151,1.111,2.361,2.361,0,0,1,1.276-.911,7.082,7.082,0,0,1,4.427.417,9.319,9.319,0,0,1,.642-5.581A9.059,9.059,0,0,1,46.6,21.48a.147.147,0,0,0,.017.043,21.374,21.374,0,0,1,.755,4.627Z" transform="translate(-0.235 -1.82)" fill="#d8eefe"/><path d="M43.859,38.481a3.089,3.089,0,0,0-.8,1.745,6.577,6.577,0,0,0-2.647-2.118l-6.944-3.472a.868.868,0,1,1,.781-1.545l6.944,3.472a9.134,9.134,0,0,1,2.665,1.918Z" transform="translate(-4.052 -4.057)" fill="rgba(0,88,151,0.3)"/><path d="M46.1,32.284a2.6,2.6,0,0,1-1.842-.762.868.868,0,0,1,1.227-1.227.868.868,0,0,0,1.228-1.227.868.868,0,1,1,1.227-1.227A2.6,2.6,0,0,1,46.1,32.284Z" transform="translate(-5.515 -3.345)" fill="rgba(0,88,151,0.3)"/><path d="M34.848,29.339c-.189-.131-4.656-3.2-8.224-2.1A3.334,3.334,0,0,0,24.3,29.8c-.356,1.562.128,3.5,1.367,5.67-.272.752-.559,1.4-.634,1.548-.76,1.445-3.1,3.094-5.583,3.92A.869.869,0,0,0,20,42.582c2.951-.984,5.593-2.9,6.578-4.774.05-.1.139-.294.248-.549a36.241,36.241,0,0,0,4.8,5.313A.868.868,0,0,0,32.807,41.3c-5.688-5.277-7.248-9.2-6.812-11.117A1.618,1.618,0,0,1,27.141,28.9c2.753-.851,6.684,1.838,6.72,1.865a.868.868,0,0,0,.991-1.425Z" transform="translate(-2.195 -3.27)" fill="rgba(0,88,151,0.3)"/></g></g></g></svg>