<svg xmlns="http://www.w3.org/2000/svg" xmlns:xlink="http://www.w3.org/1999/xlink" width="90" height="90" viewBox="0 0 90 90"><defs><clipPath id="a"><rect width="90" height="90" rx="45" transform="translate(9.114 8.814)" fill="#e4e4e4"/></clipPath></defs><g transform="translate(-9.114 -8.814)" clip-path="url(#a)"><g transform="translate(29.111 27.815)"><path d="M10.35,32.9c4.31,0,4.615,1.724,7.759,1.724,4.31,0,8.621-5.173,8.621-11.207a12.576,12.576,0,0,0-.545-3.515,22.644,22.644,0,0,0-1.862-4.49C22.393,11.844,20.258,7.1,19.889,3.046a1.738,1.738,0,0,1,1.38-1.855,10.475,10.475,0,0,1,4.364.082,1.724,1.724,0,0,1,1.238,1.315A40.888,40.888,0,0,0,28.3,7.835a11.615,11.615,0,0,1,7.917-3.386c6.9,0,13.793,5.173,13.793,19.828C50.006,34.622,47.492,51,26.73,51,14.66,51,18.109,39.794,10.35,39.794a12.857,12.857,0,0,0-7.5,2.926,1.69,1.69,0,0,1-2.844-1.2V38.07a1.729,1.729,0,0,1,.4-1.105A13.714,13.714,0,0,1,10.35,32.9Z" transform="translate(-0.001)" fill="rgba(0,88,151,0.3)"/><path d="M18.108,273.593c-3.144,0-3.448-1.724-7.759-1.724A13.715,13.715,0,0,0,.4,275.936a1.728,1.728,0,0,0-.4,1.105v3.448a1.69,1.69,0,0,0,2.844,1.2,12.858,12.858,0,0,1,7.5-2.926c7.759,0,4.31,11.207,16.38,11.207,18.71,0,22.6-13.3,23.186-23.5-1.507.766-2.47,1.949-4.22,1.949-2.586,0-3.448-2.586-6.9-2.586s-4.31,2.586-6.9,2.586c-2.254,0-3.2-1.964-5.688-2.468C24.95,270.322,21.533,273.593,18.108,273.593Z" transform="translate(0 -238.971)" fill="#005897"/><g transform="translate(19.832 33.76)"><circle cx="0.862" cy="0.862" r="0.862" transform="translate(6.035)" fill="#d8eefe"/><circle cx="0.862" cy="0.862" r="0.862" transform="translate(20.69)" fill="#d8eefe"/><circle cx="0.862" cy="0.862" r="0.862" transform="translate(13.793 2.586)" fill="#d8eefe"/><circle cx="0.862" cy="0.862" r="0.862" transform="translate(18.966 7.759)" fill="#d8eefe"/><circle cx="0.862" cy="0.862" r="0.862" transform="translate(6.897 6.035)" fill="#d8eefe"/><circle cx="0.862" cy="0.862" r="0.862" transform="translate(12.069 11.207)" fill="#d8eefe"/><circle cx="0.862" cy="0.862" r="0.862" transform="translate(0 5.173)" fill="#d8eefe"/><circle cx="0.862" cy="0.862" r="0.862" transform="translate(3.448 11.207)" fill="#d8eefe"/></g></g></g></svg>