<svg xmlns="http://www.w3.org/2000/svg" xmlns:xlink="http://www.w3.org/1999/xlink" width="183" height="115" viewBox="0 0 183 115"><defs><clipPath id="a"><rect width="183" height="115" rx="6" transform="translate(-24.19 -22)" fill="#e4e4e4"/></clipPath></defs><g transform="translate(24.19 22)" clip-path="url(#a)"><g transform="translate(31.914 -4.861)"><path d="M99.126,135.677H50.175l-2.388-5.97h53.726Z" transform="translate(-39.429 -101.39)" fill="rgba(0,88,151,0.3)"/><path d="M93.493,131.238H44.542a1.2,1.2,0,0,1-1.109-.75l-2.388-5.97a1.194,1.194,0,0,1,1.108-1.637H95.881a1.194,1.194,0,0,1,1.108,1.637l-2.388,5.97A1.194,1.194,0,0,1,93.493,131.238ZM45.35,128.85H92.684l1.433-3.582h-50.2Z" transform="translate(-33.797 -95.758)" fill="#602f75"/><rect width="44.175" height="5.97" transform="translate(13.133 22.347)" fill="#fff"/><path d="M113.635,97.1H69.46a1.194,1.194,0,0,1-1.194-1.194V89.94a1.194,1.194,0,0,1,1.194-1.194h44.175a1.194,1.194,0,0,1,1.194,1.194v5.97A1.194,1.194,0,0,1,113.635,97.1ZM70.654,94.716h41.787V91.134H70.654Z" transform="translate(-56.327 -67.593)" fill="#602f75"/><rect width="44.175" height="3.582" transform="translate(13.133 18.765)" fill="rgba(0,88,151,0.3)"/><path d="M113.635,74.236H69.46a1.194,1.194,0,0,1-1.194-1.194V69.46a1.194,1.194,0,0,1,1.194-1.194h44.175a1.194,1.194,0,0,1,1.194,1.194v3.582A1.194,1.194,0,0,1,113.635,74.236ZM70.654,71.848h41.787V70.654H70.654Z" transform="translate(-56.327 -50.695)" fill="#602f75"/><rect width="25.072" height="7.164" transform="translate(22.685 11.602)" fill="rgba(0,88,151,0.3)"/><path d="M149.146,36.857H124.074a1.194,1.194,0,0,1-1.194-1.194V28.5a1.194,1.194,0,0,1,1.194-1.194h25.072A1.194,1.194,0,0,1,150.34,28.5v7.164A1.2,1.2,0,0,1,149.146,36.857ZM125.268,34.47h22.685V29.694H125.268Z" transform="translate(-101.389 -16.898)" fill="#602f75"/><path d="M179.024,13.653h-5.97l-2.388,3.582h10.745Z" transform="translate(-140.819 -5.633)" fill="#fff"/><path d="M175.778,12.8H165.033a1.194,1.194,0,0,1-.993-1.857l2.388-3.582a1.194,1.194,0,0,1,.993-.531h5.97a1.193,1.193,0,0,1,.993.532l2.388,3.582a1.194,1.194,0,0,1-.993,1.856Zm-8.515-2.388h6.283l-.8-1.194h-4.691Z" transform="translate(-135.185)" fill="#602f75"/><rect width="44.175" height="39.399" transform="translate(13.133 34.286)" fill="#fff"/><g transform="translate(0 33.092)"><path d="M113.635,198.8H69.46a1.194,1.194,0,0,1-1.194-1.194v-39.4a1.194,1.194,0,0,1,1.194-1.194h44.175a1.194,1.194,0,0,1,1.194,1.194v39.4A1.2,1.2,0,0,1,113.635,198.8Zm-42.981-2.388h41.787V159.4H70.654Z" transform="translate(-56.327 -157.013)" fill="#005897"/><path d="M69.247,384.681H1.194a1.194,1.194,0,0,1,0-2.388H69.247a1.194,1.194,0,0,1,0,2.388Z" transform="translate(0 -342.894)" fill="#005897"/></g><path d="M153.508,184.32h0a10.148,10.148,0,0,0-10.148,10.148v25.669h20.3V194.468A10.148,10.148,0,0,0,153.508,184.32Z" transform="translate(-118.288 -146.452)" fill="#fff"/><path d="M158.024,215.7h-20.3a1.194,1.194,0,0,1-1.194-1.194V188.836a11.342,11.342,0,1,1,22.684,0v25.669A1.194,1.194,0,0,1,158.024,215.7Zm-19.1-2.388H156.83V188.836a8.954,8.954,0,1,0-17.909,0Z" transform="translate(-112.655 -140.82)" fill="#005897"/><g transform="translate(16.715 37.868)"><circle cx="2.985" cy="2.985" r="2.985" fill="rgba(0,88,151,0.3)"/><circle cx="2.985" cy="2.985" r="2.985" transform="translate(31.042)" fill="rgba(0,88,151,0.3)"/></g><g transform="translate(9.551 53.389)"><path d="M72.522,275.454H55.807a1.194,1.194,0,1,1,0-2.388H72.522a1.194,1.194,0,0,1,0,2.388Z" transform="translate(-54.613 -273.066)" fill="#005897"/><path d="M72.522,343.721H55.807a1.194,1.194,0,1,1,0-2.388H72.522a1.194,1.194,0,1,1,0,2.388Z" transform="translate(-54.613 -329.394)" fill="#005897"/><path d="M256.842,275.454H240.127a1.194,1.194,0,0,1,0-2.388h16.715a1.194,1.194,0,1,1,0,2.388Z" transform="translate(-206.697 -273.066)" fill="#005897"/><path d="M256.842,343.721H240.127a1.194,1.194,0,0,1,0-2.388h16.715a1.194,1.194,0,1,1,0,2.388Z" transform="translate(-206.697 -329.394)" fill="#005897"/></g></g><path d="M5.876,7.593H5.31A3.591,3.591,0,0,0,1.23,4.95C.841,5.017.989,2.666-2.111,3.031S-3.855,6.271-5.455,6.95a3.2,3.2,0,0,0-1.933,3.239c.024,1.131.912,1.887,2.319,1.893s5.04,0,6.9,0h4.04a2.244,2.244,0,0,0,0-4.489Z" transform="translate(10.859 -0.684)" fill="rgba(0,88,151,0.3)"/><path d="M-5.145,7.592h.566A3.591,3.591,0,0,1-.5,4.95c.389.066.241-2.284,3.342-1.919s1.744,3.24,3.344,3.918a3.2,3.2,0,0,1,1.933,3.239C8.1,11.319,7.208,12.075,5.8,12.081s-5.04,0-6.9,0h-4.04A2.244,2.244,0,0,1-7.389,9.837,2.244,2.244,0,0,1-5.145,7.592Z" transform="translate(135.689 20.316)" fill="rgba(0,88,151,0.3)"/><g transform="translate(107.81 2)" fill="none" stroke="rgba(0,88,151,0.3)" stroke-width="1"><circle cx="4" cy="4" r="4" stroke="none"/><circle cx="4" cy="4" r="3.5" fill="none"/></g><line x2="16" transform="translate(-2.69 38.5)" fill="none" stroke="rgba(0,88,151,0.3)" stroke-linecap="round" stroke-width="1"/><line x2="9" transform="translate(112.31 50.5)" fill="none" stroke="rgba(0,88,151,0.3)" stroke-linecap="round" stroke-width="1"/><line x2="1" transform="translate(15.31 38.5)" fill="none" stroke="rgba(0,88,151,0.3)" stroke-linecap="round" stroke-width="1"/><line x2="10" transform="translate(22.31 54.5)" fill="none" stroke="rgba(0,88,151,0.3)" stroke-linecap="round" stroke-width="1"/></g></svg>