<svg xmlns="http://www.w3.org/2000/svg" xmlns:xlink="http://www.w3.org/1999/xlink" width="90" height="90" viewBox="0 0 90 90"><defs><clipPath id="a"><rect width="90" height="90" rx="45" transform="translate(9.114 8.814)" fill="#e4e4e4"/></clipPath></defs><g transform="translate(-9.114 -8.814)" clip-path="url(#a)"><g transform="translate(29.313 27.972)"><path d="M37.865,7.5a4.7,4.7,0,0,0-4.7,4.7c0,.135.007.269.018.4a6.745,6.745,0,0,0-7.749,8.958,6.745,6.745,0,0,0-3.375,12.158,4.7,4.7,0,0,0,.624,9.088,7.028,7.028,0,0,0,9.3,10.038,5.338,5.338,0,0,0,10.573-1.052V12.2a4.7,4.7,0,0,0-4.7-4.7Z" transform="translate(-16.955 -6.751)" fill="rgba(0,88,151,0.3)"/><path d="M102.748,461.524a6.994,6.994,0,0,1-1.971.756A7.01,7.01,0,0,0,103,462.4,5.3,5.3,0,0,1,102.748,461.524Z" transform="translate(-90.712 -415.431)" fill="#e27f86"/><path d="M190.064,7.5a4.682,4.682,0,0,0-1.5.246,4.7,4.7,0,0,1,3.2,4.455V51.792a5.345,5.345,0,0,1-3.841,5.13,5.338,5.338,0,0,0,6.837-5.13V12.2a4.7,4.7,0,0,0-4.7-4.7Z" transform="translate(-169.155 -6.751)" fill="rgba(0,88,151,0.3)"/><g transform="translate(25.529 0.749)"><path d="M436.778,274.911a4.7,4.7,0,0,0-5.413-7.025" transform="translate(-413.813 -241.667)" fill="rgba(0,88,151,0.3)"/><path d="M333.188,69.688a6.743,6.743,0,1,0-6.994-11.514" transform="translate(-319.145 -52.076)" fill="rgba(0,88,151,0.3)"/><path d="M337.889,355.433a7.029,7.029,0,1,0,10.311-9.346" transform="translate(-329.672 -312.272)" fill="rgba(0,88,151,0.3)"/><path d="M260.314,7.5a4.7,4.7,0,0,1,4.7,4.7c0,.135-.007.269-.018.4a6.745,6.745,0,0,1,7.749,8.958,6.745,6.745,0,0,1,3.375,12.158,4.7,4.7,0,0,1-.624,9.088,7.028,7.028,0,0,1-9.3,10.038,5.338,5.338,0,0,1-10.573-1.052V12.2a4.7,4.7,0,0,1,4.7-4.7Z" transform="translate(-255.618 -7.5)" fill="rgba(0,88,151,0.3)"/></g><path d="M300.361,470.182a5.358,5.358,0,0,1-2.851,2.469,5.335,5.335,0,0,0,6.054-3.095,7,7,0,0,1-1.138-.228A1.788,1.788,0,0,0,300.361,470.182Z" transform="translate(-267.797 -422.393)" fill="#e27f86"/><path d="M305.465,37.618a4.7,4.7,0,0,0-3.191-3.9A6.745,6.745,0,0,0,298.9,21.561,6.739,6.739,0,0,0,291.15,12.6c.011-.132.018-.266.018-.4a4.7,4.7,0,0,0-6.49-4.345,4.7,4.7,0,0,1,3.494,4.545v0a.325.325,0,0,0,.377.323,6.734,6.734,0,0,1,7.783,6.662q0,.34-.033.671a1.977,1.977,0,0,0,1.279,2.067,6.747,6.747,0,0,1,1.7,11.789,4.7,4.7,0,0,1,1.451,8.146,3.1,3.1,0,0,0-1.084,3.18,7.043,7.043,0,0,1-4.868,8.441,7.034,7.034,0,0,0,6.874-10.878,4.7,4.7,0,0,0,3.815-5.19Z" transform="translate(-256.247 -6.752)" fill="rgba(0,88,151,0.3)"/><path fill="none" stroke="#000" stroke-linecap="round" stroke-linejoin="round" stroke-miterlimit="10" stroke-width="15"/><g transform="translate(1.132 0)"><path d="M325.929,324.908a.749.749,0,1,0-.34-1.459,5.46,5.46,0,0,0-3.059,1.956,5.411,5.411,0,0,0-3.385-.3.749.749,0,1,0,.34,1.459,3.948,3.948,0,0,1,4.745,2.946,3.976,3.976,0,0,1,.1.777.749.749,0,0,0,.748.726h.024a.749.749,0,0,0,.725-.772,5.465,5.465,0,0,0-.14-1.071,5.4,5.4,0,0,0-1.866-2.985A3.959,3.959,0,0,1,325.929,324.908Z" transform="translate(-287.883 -291.128)" fill="#005897"/><path d="M115.426,290.109a6.006,6.006,0,0,1,3.051-5.037.749.749,0,1,0-.733-1.306,7.5,7.5,0,0,0-3.786,5.832,7.54,7.54,0,0,0-3.883,3.7.749.749,0,1,0,1.353.643,6.029,6.029,0,0,1,2.557-2.692,7.472,7.472,0,0,0,2.211,4.41.749.749,0,1,0,1.045-1.074,5.969,5.969,0,0,1-1.815-4.424C115.425,290.14,115.426,290.125,115.426,290.109Z" transform="translate(-100.148 -255.339)" fill="#005897"/><path d="M293.168,119.855a.749.749,0,1,0-.406,1.442,5.969,5.969,0,0,1,3.706,3.023c.007.014.014.028.021.042a6.006,6.006,0,0,1-.278,5.883.749.749,0,1,0,1.268.8,7.5,7.5,0,0,0,.544-6.932,7.54,7.54,0,0,0,1.649-5.1.749.749,0,0,0-1.5.081,6.03,6.03,0,0,1-.962,3.586,7.469,7.469,0,0,0-4.047-2.821Z" transform="translate(-264.164 -106.486)" fill="#005897"/><path d="M60.166,30.776a5.478,5.478,0,0,0-2.576-4A7.493,7.493,0,0,0,53.826,14.2a7.5,7.5,0,0,0-7.277-9.253c-.105,0-.211,0-.316.007l-.069,0c-.1.005-.2.012-.3.021h-.005A5.443,5.443,0,0,0,35.772,2.63,5.443,5.443,0,0,0,25.689,4.979a7.492,7.492,0,0,0-4.263.872.749.749,0,1,0,.716,1.316,6.017,6.017,0,0,1,4.135-.584l.019,0a5.927,5.927,0,0,1,2.047.881.749.749,0,1,0,.839-1.241,7.422,7.422,0,0,0-2.01-.957,3.946,3.946,0,0,1,7.846-.408c-.021.194-.032,11.492-.032,11.492A5.987,5.987,0,0,1,26.732,12a.749.749,0,1,0-1.471.284,7.471,7.471,0,0,0,9.724,5.673S35,45.463,35.017,45.67a4.588,4.588,0,0,1-8.918.768,7.77,7.77,0,0,0,2.115-2.108.749.749,0,0,0-1.242-.838A6.294,6.294,0,0,1,25.1,45.3c.01.017.02.034.029.052a.749.749,0,0,0-.268.09,6.282,6.282,0,0,1-8.535-8.606h0a6.293,6.293,0,0,1,1.429-1.7.749.749,0,1,0-.958-1.152,7.822,7.822,0,0,0-1.179,1.221,3.953,3.953,0,0,1-.077-7.531l0,0a3.922,3.922,0,0,1,1.707-.168,3.977,3.977,0,0,1,.765.171.749.749,0,0,0,.47-1.423,5.472,5.472,0,0,0-3.022-.116,6,6,0,0,1,2.748-10.513,7.535,7.535,0,0,0,3.189,3.39.749.749,0,1,0,.719-1.314,6.028,6.028,0,0,1-2.661-2.957,11.888,11.888,0,0,1-.46-2.308,5.969,5.969,0,0,1,1.022-3.352.749.749,0,0,0-1.242-.838,7.511,7.511,0,0,0-1.07,5.95,7.493,7.493,0,0,0-3.764,12.578,5.451,5.451,0,0,0,.852,9.733,7.777,7.777,0,0,0,9.957,10.649,6.084,6.084,0,0,0,11.01.873,6.084,6.084,0,0,0,11.009-.873,7.777,7.777,0,0,0,6.026-.013.749.749,0,1,0-.585-1.379,6.277,6.277,0,0,1-5.544-.325l-.016-.008a6.284,6.284,0,0,1-2.09-1.943.749.749,0,1,0-1.242.838,7.781,7.781,0,0,0,2.114,2.11,4.588,4.588,0,0,1-8.917-.77c.021-.207.021-40.615,0-40.808a3.946,3.946,0,0,1,7.846.409,7.489,7.489,0,0,0-2.01.957A.749.749,0,1,0,43.2,7.467a5.993,5.993,0,0,1,8.954,7.079s0,.009,0,.013A6.007,6.007,0,0,1,49.416,17.7a.749.749,0,1,0,.719,1.314,7.507,7.507,0,0,0,3.188-3.39,6,6,0,0,1,2.748,10.514,5.464,5.464,0,0,0-3.022.115.749.749,0,0,0,.47,1.423,3.983,3.983,0,0,1,.765-.171,3.925,3.925,0,0,1,1.707.168l0,0a3.953,3.953,0,0,1-.077,7.53,7.808,7.808,0,0,0-1.179-1.22.749.749,0,0,0-.958,1.152,6.294,6.294,0,0,1,1.244,1.395c.023.036.047.072.07.108s.052.084.077.127a6.29,6.29,0,0,1-.672,7.345.749.749,0,0,0,1.128.986,7.794,7.794,0,0,0,1.109-8.59,5.459,5.459,0,0,0,3.428-5.735Z" transform="translate(-11.337 0)" fill="#005897"/></g></g></g></svg>