<svg xmlns="http://www.w3.org/2000/svg" xmlns:xlink="http://www.w3.org/1999/xlink" width="90" height="90" viewBox="0 0 90 90"><defs><clipPath id="a"><rect width="90" height="90" rx="45" transform="translate(9.114 8.814)" fill="#e4e4e4"/></clipPath><clipPath id="b"><circle cx="25.491" cy="25.491" r="25.491" transform="translate(-1.809 1.527)" fill="#4f5565"/></clipPath></defs><g transform="translate(-9.114 -8.814)" clip-path="url(#a)"><g transform="translate(29.114 29.735)"><g transform="translate(0 0)" fill="rgba(0,88,151,0.3)" stroke="#005897" stroke-width="3"><circle cx="25.491" cy="25.491" r="25.491" stroke="none"/><circle cx="25.491" cy="25.491" r="23.991" fill="none"/></g><g transform="translate(1.809 -1.527)" clip-path="url(#b)"><g transform="translate(6.873 0.17)"><path d="M74.491,382.5a16.111,16.111,0,0,1-3.747-.519c-1.326-.461-3.516,2.68-.778,4.266s7.205,1.47,7.205,1.47Z" transform="translate(-68.655 -349.616)" fill="#005897"/><path d="M282.448,1.7V18.036h10.52V5.816A21.1,21.1,0,0,0,282.448,1.7Z" transform="translate(-264.276 -1.695)" fill="#005897"/></g><path d="M214.633,323.972l3.8,10.635c1.5-.115,2.709-.231,3.228-.317.98-.115,3.286.144,5.62.058l-10.347-11.211C216.795,323.194,215.238,323.712,214.633,323.972Z" transform="translate(-195.353 -295.645)" fill="#ebebeb"/><path d="M143.089,336.14l7.955,7.58c.663-.029,1.326-.086,1.931-.144l-3.8-10.606A46.479,46.479,0,0,0,143.089,336.14Z" transform="translate(-129.89 -304.643)" fill="#fffffc"/><path d="M124.1,371.616c1.5,1.124.749,6.2.749,6.2.98.663,5.217.576,8.819.375l-7.954-7.58C124.735,371.183,124.1,371.616,124.1,371.616Z" transform="translate(-112.516 -339.08)" fill="#ebebeb"/><path d="M241.759,309.794l10.347,11.211c2.19-.086,4.41-.49,5.62-1.816,1.038-1.153,1.066-3.343.749-5.5l-14.41-5.13A7.058,7.058,0,0,1,241.759,309.794Z" transform="translate(-220.174 -282.303)" fill="#fffffc"/><g transform="translate(23.892 12.015)"><path d="M286.645,141.4l-12.335-.346c.058.922.173,2.1.259,3.372l12.1.922V141.4Z" transform="translate(-273.849 -141.054)" fill="#ebebeb"/><path d="M281.681,282.787H270.038a3.183,3.183,0,0,1-1.153,2.219l14.41,5.13a33.765,33.765,0,0,0-1.614-6.11Z" transform="translate(-268.885 -270.74)" fill="#ebebeb"/></g><g transform="translate(24.209 10.314)"><path d="M292.54,213.955l-11.788,1.7c.058.922.2,3.516.115,4.15h11.643v-5.851Z" transform="translate(-280.06 -206.058)" fill="#fcfcfd"/><path d="M285.094,121.049H272.615s.058.663.144,1.7l12.364.346v-2.046Z" transform="translate(-272.615 -121.049)" fill="#fcfcfd"/></g><path d="M289.127,181.648l-12.1-.922c.115,1.556.231,3.2.317,4.525l11.788-1.7Z" transform="translate(-252.438 -165.339)" fill="#ebebeb"/></g></g></g></svg>