<svg xmlns="http://www.w3.org/2000/svg" width="128" height="146" viewBox="0 0 128 146"><g transform="translate(-126 -3397)"><path d="M82.483,0A18,18,0,0,1,98.164,9.162l20.855,37a18,18,0,0,1,0,17.676l-20.855,37A18,18,0,0,1,82.483,110H41.517a18,18,0,0,1-15.681-9.162l-20.855-37a18,18,0,0,1,0-17.676l20.855-37A18,18,0,0,1,41.517,0Z" transform="translate(245 3408) rotate(90)" fill="#005897"/><g transform="translate(254 3397) rotate(90)" fill="none"><path d="M99.044,0A18,18,0,0,1,114.68,9.083l26.234,46a18,18,0,0,1,0,17.835l-26.234,46A18,18,0,0,1,99.044,128H46.956a18,18,0,0,1-15.636-9.083l-26.234-46a18,18,0,0,1,0-17.835l26.234-46A18,18,0,0,1,46.956,0Z" stroke="none"/><path d="M 46.95594787597656 1 C 43.96016693115234 1 41.00745391845703 1.795364379882812 38.41699981689453 3.300125122070312 C 35.82654571533203 4.80487060546875 33.67283630371094 6.975746154785156 32.18870544433594 9.578056335449219 L 5.954330444335938 55.57807159423828 C 4.493637084960938 58.13927459716797 3.721542358398438 61.05152893066406 3.721542358398438 64 C 3.721542358398438 66.94845581054688 4.493637084960938 69.86071014404297 5.954330444335938 72.42194366455078 L 32.18869018554688 118.4219284057617 C 33.67283630371094 121.0242538452148 35.82654571533203 123.1951293945312 38.41698455810547 124.6998748779297 C 41.00743865966797 126.2046356201172 43.96014404296875 127 46.95592498779297 127 L 99.0440673828125 127 C 102.0398559570312 127 104.9925689697266 126.2046356201172 107.5830230712891 124.6998748779297 C 110.173454284668 123.1951293945312 112.3271636962891 121.0242538452148 113.8113098144531 118.4219436645508 L 140.0456695556641 72.42194366455078 C 141.5063629150391 69.86072540283203 142.2784423828125 66.94847106933594 142.2784423828125 64 C 142.2784423828125 61.05152893066406 141.5063629150391 58.13927459716797 140.0456695556641 55.57805633544922 L 113.8113098144531 9.578071594238281 C 112.3271636962891 6.975746154785156 110.173454284668 4.80487060546875 107.5830230712891 3.300125122070312 C 104.9925689697266 1.795364379882812 102.0398559570312 1 99.0440673828125 1 L 46.95594787597656 1 M 46.95594787597656 0 L 99.0440673828125 0 C 105.5089111328125 0 111.4772186279297 3.466911315917969 114.6799621582031 9.082656860351562 L 140.9143218994141 55.08265686035156 C 144.0664672851562 60.60971069335938 144.0664672851562 67.39028930664062 140.9143218994141 72.91734313964844 L 114.6799621582031 118.9173431396484 C 111.4772186279297 124.533088684082 105.5089111328125 128 99.0440673828125 128 L 46.95592498779297 128 C 40.4910888671875 128 34.52278137207031 124.533088684082 31.32003784179688 118.9173431396484 L 5.085678100585938 72.91734313964844 C 1.933502197265625 67.39027404785156 1.933502197265625 60.60971069335938 5.085678100585938 55.08265686035156 L 31.32005310058594 9.082656860351562 C 34.52278137207031 3.466911315917969 40.49111175537109 0 46.95594787597656 0 Z" stroke="none" fill="rgba(0,88,151,0.16)"/></g><g transform="translate(148.219 3446)"><path d="M36.293,22.061v9.868h-2.73V21.814a4.914,4.914,0,0,1,4.82-4.907l2.265-7.967A9.189,9.189,0,0,0,39.153.906L38.472,0,28.207,21.187V36.251L19.781,48.2H35.449l3.732-5.515a8.559,8.559,0,0,0,1.47-4.8V22.061a2.179,2.179,0,0,0-4.359,0Z" transform="translate(0 0)" fill="#fff"/><path d="M279.643,36.251V21.187L269.378,0,268.7.906A9.189,9.189,0,0,0,267.2,8.941l2.265,7.967a4.914,4.914,0,0,1,4.82,4.907V31.928h-2.73V22.061a2.179,2.179,0,0,0-4.359,0V37.888a8.559,8.559,0,0,0,1.47,4.8L272.4,48.2h15.668Z" transform="translate(-223.812)" fill="#fff"/></g></g></svg>