<svg xmlns="http://www.w3.org/2000/svg" xmlns:xlink="http://www.w3.org/1999/xlink" width="183" height="115" viewBox="0 0 183 115"><defs><clipPath id="a"><rect width="183" height="115" rx="6" transform="translate(-24.19 -22)" fill="#e4e4e4"/></clipPath></defs><g transform="translate(24.19 22)" clip-path="url(#a)"><path d="M5.876,7.593H5.31A3.591,3.591,0,0,0,1.23,4.95C.841,5.017.989,2.666-2.111,3.031S-3.855,6.271-5.455,6.95a3.2,3.2,0,0,0-1.933,3.239c.024,1.131.912,1.887,2.319,1.893s5.04,0,6.9,0h4.04a2.244,2.244,0,0,0,0-4.489Z" transform="translate(120.859 -0.684)" fill="rgba(0,88,151,0.3)"/><path d="M-5.145,7.592h.566A3.591,3.591,0,0,1-.5,4.95c.389.066.241-2.284,3.342-1.919s1.744,3.24,3.344,3.918a3.2,3.2,0,0,1,1.933,3.239C8.1,11.319,7.208,12.075,5.8,12.081s-5.04,0-6.9,0h-4.04A2.244,2.244,0,0,1-7.389,9.837,2.244,2.244,0,0,1-5.145,7.592Z" transform="translate(3.689 20.316)" fill="rgba(0,88,151,0.3)"/><g transform="translate(29.81 2)" fill="none" stroke="rgba(0,88,151,0.3)" stroke-width="1"><circle cx="4" cy="4" r="4" stroke="none"/><circle cx="4" cy="4" r="3.5" fill="none"/></g><line x2="16" transform="translate(102.31 38.5)" fill="none" stroke="rgba(0,88,151,0.3)" stroke-linecap="round" stroke-width="1"/><line x2="9" transform="translate(129.31 58.5)" fill="none" stroke="rgba(0,88,151,0.3)" stroke-linecap="round" stroke-width="1"/><line x2="1" transform="translate(120.31 38.5)" fill="none" stroke="rgba(0,88,151,0.3)" stroke-linecap="round" stroke-width="1"/><line x2="10" transform="translate(14.31 54.5)" fill="none" stroke="rgba(0,88,151,0.3)" stroke-linecap="round" stroke-width="1"/><g transform="translate(-79.143 0.789)"><path d="M132.43,49.71l.232-6.637L135.4,41.82l2.6,1.253.6,6.173h5.617l-.279-4.873,1.114-2.043,1.9-.51h1.072l1.252,1.253.929,1.9-.232,4.733h5.478V43.073l1.856-1.253h1.81l1.485,1.253.371,2.414v4.733Z" fill="rgba(0,88,151,0.3)"/><path d="M55.945,26.157H79.959L67.81,6.729Z" transform="translate(79.143 -0.789)" fill="rgba(0,88,151,0.3)"/><path d="M247.346,128.317A1.346,1.346,0,0,1,246,126.971V125.1a1.346,1.346,0,1,1,2.692,0v1.873A1.346,1.346,0,0,1,247.346,128.317Z" transform="translate(-100.425 -107.091)" fill="#005897"/><path d="M162.616,48.55v-15a1.346,1.346,0,0,0-.118-2.687h-1.922V26.836h.77a1.346,1.346,0,1,0,0-2.692h-1.363L148.267,5.054V1.346a1.346,1.346,0,1,0-2.692,0V5.054l-11.716,19.09H132.5a1.346,1.346,0,1,0,0,2.692h.77V30.86h-1.922a1.346,1.346,0,0,0-.118,2.687v15a1.346,1.346,0,0,0,0,2.689V67.581a1.346,1.346,0,0,0,1.346,1.346h28.7a1.346,1.346,0,0,0,1.346-1.346V51.238a1.346,1.346,0,0,0,0-2.689Zm-15.7-40.542,9.9,16.136H137.018Zm-13,36.864a1.67,1.67,0,1,1,3.341,0v3.675h-3.341Zm26.005,21.363h-3.341V57.754a1.346,1.346,0,1,0-2.692,0v8.481h-5.623V57.754a1.346,1.346,0,1,0-2.692,0v8.481h-5.623V57.754a1.346,1.346,0,1,0-2.692,0v8.481h-3.341V51.24h26.005ZM145.251,48.548V44.872a1.67,1.67,0,0,1,3.341,0v3.675Zm14.673,0h-3.341V44.872a1.67,1.67,0,0,1,3.341,0Zm0-7.706a4.363,4.363,0,0,0-6.033,4.03v3.675h-2.606V44.872a4.363,4.363,0,0,0-8.726,0v3.675h-2.606V44.872a4.363,4.363,0,0,0-6.033-4.03V33.553h6.922a1.346,1.346,0,1,0,0-2.692h-4.882V26.836h21.925V30.86H153a1.346,1.346,0,0,0,0,2.692h6.922v7.289Z" transform="translate(0)" fill="#005897"/><path d="M247.176,231.95a1.346,1.346,0,1,1,1.319-1.082A1.357,1.357,0,0,1,247.176,231.95Z" transform="translate(-100.279 -198.398)" fill="#005897"/><line x2="44" transform="translate(124.452 68.711)" fill="none" stroke="#005897" stroke-linecap="round" stroke-width="2"/></g></g></svg>