<svg xmlns="http://www.w3.org/2000/svg" xmlns:xlink="http://www.w3.org/1999/xlink" width="90" height="90" viewBox="0 0 90 90"><defs><clipPath id="a"><rect width="90" height="90" rx="45" transform="translate(9.114 8.814)" fill="#e4e4e4"/></clipPath></defs><g transform="translate(-9.114 -8.814)" clip-path="url(#a)"><g transform="translate(27.096 -12.805)"><path d="M135.527,277.164a1.571,1.571,0,0,1-1.571-1.571V262.684a2.448,2.448,0,0,0-1.723-2.346l-5.6-1.753a1.571,1.571,0,0,1,.939-3l5.6,1.753a5.576,5.576,0,0,1,3.926,5.344v12.909A1.571,1.571,0,0,1,135.527,277.164Z" transform="translate(-112.28 -189.229)" fill="#d8eefe"/><path d="M132.846,260.629a10.193,10.193,0,0,0-2.453-4.16l-2.818-.883a1.571,1.571,0,1,0-.939,3l5.6,1.753A2.468,2.468,0,0,1,132.846,260.629Z" transform="translate(-112.28 -189.229)" opacity="0.1"/><path d="M278.52,277.164a1.571,1.571,0,0,1-1.571-1.571V262.684a5.576,5.576,0,0,1,3.926-5.344l5.6-1.753a1.571,1.571,0,0,1,.939,3l-5.6,1.753a2.448,2.448,0,0,0-1.723,2.346v12.909A1.571,1.571,0,0,1,278.52,277.164Z" transform="translate(-247.708 -189.229)" fill="#d8eefe"/><path d="M317.21,260.629a10.193,10.193,0,0,1,2.453-4.16l2.818-.883a1.571,1.571,0,1,1,.939,3l-5.6,1.753A2.471,2.471,0,0,0,317.21,260.629Z" transform="translate(-283.718 -189.229)" opacity="0.1"/><path d="M148.658,72.353l-6.263-2.189a5.783,5.783,0,0,1-3.116-2.595L137.8,64.976a5.68,5.68,0,0,1-.746-2.814v-9.1a1.6,1.6,0,0,0-1.495-1.613,1.571,1.571,0,0,0-1.647,1.569v9.143a5.68,5.68,0,0,1-.746,2.814l-1.479,2.593a5.785,5.785,0,0,1-3.116,2.595l-6.221,2.174a1.6,1.6,0,0,0-1.016,1.99,1.569,1.569,0,0,0,2.01.99l6.263-2.189a8.926,8.926,0,0,0,4.808-4l.93-1.63a.158.158,0,0,1,.274,0l.929,1.63a8.926,8.926,0,0,0,4.808,4l6.263,2.189a1.571,1.571,0,0,0,1.036-2.966Z" transform="translate(-108.455 -6.709)" fill="rgba(0,88,151,0.3)"/><path d="M319.967,231.165a.788.788,0,0,0,0-1.173,10.272,10.272,0,0,1-1.916-2.65c.132.058.266.112.4.159l6.221,2.174a1.6,1.6,0,0,1,1.016,1.99,1.569,1.569,0,0,1-2.01.99l-3.851-1.346C319.875,231.261,319.92,231.212,319.967,231.165Z" transform="translate(-284.47 -164.03)" opacity="0.1"/><path d="M127.07,231.024a.788.788,0,0,1,0-1.173,10.271,10.271,0,0,0,1.916-2.65c-.132.058-.266.111-.4.159l-6.221,2.174a1.6,1.6,0,0,0-1.016,1.99,1.57,1.57,0,0,0,2.01.99l3.851-1.346C127.161,231.12,127.117,231.071,127.07,231.024Z" transform="translate(-108.465 -163.904)" opacity="0.1"/><path d="M7.5,125.082c0,4.107,1.107,9.466,5.021,13.379A7.837,7.837,0,0,0,23.6,127.377a3.2,3.2,0,0,1,0-4.591A7.837,7.837,0,0,0,12.52,111.7C8.607,115.616,7.5,120.975,7.5,125.082Z" transform="translate(-6.708 -58.549)" fill="#d8eefe"/><path d="M11.137,146.209A19.667,19.667,0,0,0,7.5,158c0,4.107,1.107,9.466,5.021,13.379a7.825,7.825,0,0,0,11.735-.742C13.788,173.623,6.114,157.73,11.137,146.209Z" transform="translate(-6.708 -91.464)" fill="#005897" opacity="0.1"/><path d="M348.636,125.082c0,4.107-1.107,9.466-5.021,13.379a7.837,7.837,0,1,1-11.083-11.083,3.2,3.2,0,0,0,0-4.591A7.837,7.837,0,1,1,343.616,111.7C347.529,115.616,348.636,120.975,348.636,125.082Z" transform="translate(-295.369 -58.549)" fill="#e5e2ff"/><path d="M338.312,284.917c-4.855-.352-6.329-5.56-5.374-9.9a3.546,3.546,0,0,1-.406.484,7.837,7.837,0,1,0,11.083,11.083,18.131,18.131,0,0,0,4.929-11.327C345.305,282.831,343.387,285.285,338.312,284.917Z" transform="translate(-295.369 -206.672)" fill="#005897" opacity="0.1"/><path d="M51.979,57.062a.792.792,0,0,0-1.422.7,20.185,20.185,0,0,1,1.918,8.773c0,3-.622,8.652-4.789,12.819a7.047,7.047,0,0,1-11.167-8.359.77.77,0,0,0,.044-.078,7.075,7.075,0,0,1,1.159-1.527,4.224,4.224,0,0,0,.687-.9l.009-.015c.045-.08.088-.161.127-.243A4.378,4.378,0,0,1,40.1,69.969a.792.792,0,0,0,1.41-.722,5.722,5.722,0,0,0-2.587-2.607c0-.036,0-.071,0-.107a4.081,4.081,0,0,0-.042-.584,5.7,5.7,0,0,0,2.627-2.626A.792.792,0,0,0,40.1,62.6a4.274,4.274,0,0,1-1.761,1.85q-.054-.087-.113-.173c-.009-.014-.019-.027-.029-.04a4.326,4.326,0,0,0-.474-.562,7.045,7.045,0,1,1,9.964-9.963c.339.339.666.7.972,1.074a.792.792,0,0,0,1.226-1c-.339-.414-.7-.814-1.077-1.19A8.63,8.63,0,0,0,35.273,63.082L34.2,62.708a4.992,4.992,0,0,1-2.689-2.24l-1.479-2.593a4.9,4.9,0,0,1-.642-2.422v-9.1a2.382,2.382,0,0,0-2.25-2.4,2.343,2.343,0,0,0-1.744.65,2.374,2.374,0,0,0-.732,1.71v9.143a4.9,4.9,0,0,1-.642,2.422l-1.479,2.593a4.992,4.992,0,0,1-2.69,2.24l-1.066.373A8.63,8.63,0,0,0,5.252,52.594C.682,57.165,0,63.289,0,66.533A20.477,20.477,0,0,0,4.071,79.153a.792.792,0,1,0,1.236-.99A18.893,18.893,0,0,1,1.584,66.533c0-3,.622-8.652,4.789-12.819a7.045,7.045,0,1,1,9.964,9.964,4.341,4.341,0,0,0-.473.561c-.01.013-.019.026-.029.04q-.059.086-.114.174a4.274,4.274,0,0,1-1.761-1.85.792.792,0,0,0-1.41.722,5.7,5.7,0,0,0,2.627,2.626,4.083,4.083,0,0,0-.042.584c0,.036,0,.072,0,.107a5.72,5.72,0,0,0-2.587,2.607.792.792,0,1,0,1.41.722,4.379,4.379,0,0,1,1.554-1.735c.041.086.086.171.134.255l.018.032a4.231,4.231,0,0,0,.67.867,7.074,7.074,0,0,1,1.159,1.526.8.8,0,0,0,.045.08,7.048,7.048,0,0,1-9.692,9.489.792.792,0,0,0-.789,1.373A8.636,8.636,0,0,0,19.6,71.829l.112.035a1.659,1.659,0,0,1,1.168,1.59V86.363a2.363,2.363,0,0,0,4.725,0V73.454a6.365,6.365,0,0,0-4.481-6.1L21,67.314l.417-.146a9.718,9.718,0,0,0,5.235-4.359l.379-.664.379.664a9.718,9.718,0,0,0,5.235,4.359l.418.146-.129.04a6.365,6.365,0,0,0-4.481,6.1V86.363a2.363,2.363,0,0,0,4.725,0V73.454a1.659,1.659,0,0,1,1.168-1.59l.112-.035a8.633,8.633,0,0,0,14.352,8.642c4.57-4.57,5.253-10.695,5.253-13.939A21.775,21.775,0,0,0,51.979,57.062ZM24.026,73.454V86.363a.779.779,0,0,1-1.558,0V73.454a3.236,3.236,0,0,0-2.279-3.1L18.736,69.9a8.665,8.665,0,0,0-1.078-1.417l.835-.292,2.161.677A4.788,4.788,0,0,1,24.026,73.454Zm4.757-11.43-.929-1.63a.95.95,0,0,0-1.65,0l-.93,1.63a8.134,8.134,0,0,1-4.382,3.649l-4.1,1.434a2.433,2.433,0,0,1-.07-.575,2.338,2.338,0,0,1,.294-1.154L20.378,64.2a6.577,6.577,0,0,0,3.543-2.95L25.4,58.66a6.484,6.484,0,0,0,.85-3.206V46.31a.779.779,0,0,1,.818-.778.811.811,0,0,1,.74.822v9.1a6.483,6.483,0,0,0,.85,3.207l1.479,2.593a6.575,6.575,0,0,0,3.543,2.95l3.369,1.177a2.338,2.338,0,0,1,.293,1.153,2.434,2.434,0,0,1-.07.576l-4.106-1.435A8.134,8.134,0,0,1,28.783,62.024Zm5.087,8.329a3.237,3.237,0,0,0-2.279,3.1V86.363a.779.779,0,1,1-1.558,0V73.454A4.788,4.788,0,0,1,33.4,68.866l2.16-.676.836.292A8.672,8.672,0,0,0,35.323,69.9Z" transform="translate(0 0)" fill="#005897"/></g></g></svg>