<svg xmlns="http://www.w3.org/2000/svg" xmlns:xlink="http://www.w3.org/1999/xlink" width="90" height="90" viewBox="0 0 90 90"><defs><clipPath id="a"><rect width="90" height="90" rx="45" transform="translate(9.114 8.814)" fill="#e4e4e4"/></clipPath></defs><g transform="translate(-9.114 -8.814)" clip-path="url(#a)"><g transform="translate(31.068 24.713)"><path d="M39.516,57.858a1,1,0,0,1-.875.493H7.629a1.025,1.025,0,0,1-.875-.493c-5.3-8.784-7.285-20.185-3.6-29.925C4.51,24.34,5.929,20.788,7.036,17.106A21.18,21.18,0,0,0,5.858,1.449,1.006,1.006,0,0,1,6.764,0H39.506a1,1,0,0,1,.906,1.449,21.18,21.18,0,0,0-1.177,15.657c1.107,3.683,2.526,7.235,3.884,10.827,3.683,9.74,1.7,21.141-3.6,29.925Z" transform="translate(0.008 0)" fill="rgba(0,88,151,0.3)"/><path d="M16.915,19.777a1.014,1.014,0,0,1-1.006.916A52.142,52.142,0,0,1,6.37,18.982c.221-.634.423-1.278.614-1.922A46.508,46.508,0,0,0,16,18.68,1.019,1.019,0,0,1,16.915,19.777Z" transform="translate(0.04 0.106)" fill="#f9c795"/><path d="M39.7,18.982c-.01.01-.01.01-.02.01a49.716,49.716,0,0,1-9.428,1.7,1.01,1.01,0,0,1-.181-2.012,46.508,46.508,0,0,0,9.016-1.62C39.273,17.7,39.474,18.348,39.7,18.982Z" transform="translate(0.181 0.106)" fill="#f9c795"/><path d="M38.2,57.858a.906.906,0,0,1-.795.493H8.856a.914.914,0,0,1-.8-.493c-4.88-8.784-6.7-20.185-3.321-29.925C5.988,24.34,7.3,20.788,8.3,17.106A22.8,22.8,0,0,0,7.226,1.449,1,1,0,0,1,8.051,0H38.2a1,1,0,0,1,.825,1.449,22.865,22.865,0,0,0-1.077,15.657c1.016,3.683,2.324,7.235,3.572,10.827,3.391,9.74,1.56,21.141-3.321,29.925Z" transform="translate(0.019 0)" fill="#d8eefe"/><path d="M24.012,45.006V58.077H22V45.006a1.006,1.006,0,0,1,2.012,0Z" transform="translate(0.137 0.274)" fill="rgba(0,88,151,0.3)"/><g transform="translate(0 8.694)"><path d="M46.105,14.033c0,2.043-2.153,3.713-6.41,5a51.945,51.945,0,0,1-9.539,1.711,1.007,1.007,0,0,1-.091-2.012,46.508,46.508,0,0,0,9.016-1.62h.01c3.693-1.107,5-2.355,5-3.079,0-.9-1.851-2.274-6-3.361a18.7,18.7,0,0,1,.1-2.033.886.886,0,0,1,.171.02c5.061,1.3,7.738,3.149,7.738,5.373Z" transform="translate(0.181 -8.64)" fill="#005897"/><path d="M16.955,19.829a1.014,1.014,0,0,1-1.006.916,51.1,51.1,0,0,1-9.519-1.7c-.01,0-.01,0-.02-.01C2.153,17.746,0,16.076,0,14.033,0,11.81,2.677,9.958,7.738,8.66a.886.886,0,0,1,.171-.02,18.7,18.7,0,0,1,.1,2.033c-4.146,1.087-6,2.465-6,3.361,0,.724,1.308,1.972,5,3.079a43.59,43.59,0,0,0,9.026,1.62A1.019,1.019,0,0,1,16.955,19.829Z" transform="translate(0 -8.64)" fill="#005897"/><path d="M11.006,25.068a1.006,1.006,0,0,1-.673-1.754l4.2-3.78-4.2-3.78a1.006,1.006,0,0,1,1.346-1.5l5.031,4.528a1.006,1.006,0,0,1,0,1.5C11.339,25.117,11.547,25.068,11.006,25.068Z" transform="translate(0.062 -8.607)" fill="#005897"/><path d="M35.037,25.068c-.541,0-.331.049-5.7-4.787a1.006,1.006,0,0,1,0-1.5l5.031-4.528a1.006,1.006,0,0,1,1.346,1.5l-4.2,3.78,4.2,3.78a1.006,1.006,0,0,1-.673,1.754Z" transform="translate(0.18 -8.607)" fill="#005897"/></g><circle cx="2.402" cy="2.402" r="2.402" transform="translate(20.741 18.372)" fill="rgba(0,88,151,0.3)"/><path d="M44.666,33.825c-7.389,4.38-13.557,5.283-20.051,12.469a2,2,0,0,1-2.964,0,34.638,34.638,0,0,0-11.6-8.233A83.035,83.035,0,0,1,1.6,33.825,27.067,27.067,0,0,1,3.039,28.09c8.74,7.971,31.441,7.978,40.188,0A27.068,27.068,0,0,1,44.666,33.825Z" transform="translate(0.01 0.175)" fill="#005897"/></g></g></svg>