<svg xmlns="http://www.w3.org/2000/svg" xmlns:xlink="http://www.w3.org/1999/xlink" width="168" height="80" viewBox="0 0 168 80"><defs><clipPath id="a"><rect width="168" height="80" transform="translate(139 3490)" fill="#fff"/></clipPath></defs><g transform="translate(-139 -3490)" clip-path="url(#a)"><g transform="translate(156.493 3517.442)"><path d="M55.291,190.776V182L50,164.3h4.377l3.159,12.064h.076L60.772,164.3h4L59.477,182v8.774Zm14.426-20.384v14.3c0,1.891.837,2.609,2.17,2.609s2.17-.719,2.17-2.609v-14.3c0-1.891-.837-2.61-2.17-2.61S69.716,168.5,69.716,170.392Zm-4.187,14.03V170.656c0-4.236,2.246-6.656,6.356-6.656s6.356,2.42,6.356,6.656v13.766c0,4.236-2.246,6.656-6.356,6.656S65.529,188.658,65.529,184.422ZM80.754,164.3h4.187v20.422c0,1.891.837,2.572,2.17,2.572s2.17-.68,2.17-2.572V164.3h3.958V184.46c0,4.236-2.131,6.656-6.242,6.656s-6.242-2.42-6.242-6.656Zm28.356,26.474h-4.262a8.084,8.084,0,0,1-.38-3.252v-4.16c0-2.458-.838-3.366-2.74-3.366H100.28v10.778H96.093V164.3h6.318c4.34,0,6.2,2,6.2,6.089v2.08c0,2.724-.876,4.463-2.74,5.333v.075c2.093.87,2.778,2.837,2.778,5.6v4.084A7.75,7.75,0,0,0,109.11,190.776ZM102.3,168.084H100.28v8.132h1.636c1.561,0,2.513-.681,2.513-2.8v-2.61C104.429,168.917,103.782,168.084,102.3,168.084Zm8.565,2.572c0-4.236,2.093-6.656,6.166-6.656s6.167,2.42,6.167,6.656v.832h-3.959v-1.1c0-1.891-.761-2.61-2.093-2.61s-2.094.719-2.094,2.61c0,1.929.838,3.366,3.579,5.748,3.5,3.063,4.6,5.257,4.6,8.282,0,4.236-2.131,6.656-6.242,6.656s-6.242-2.42-6.242-6.656V182.8h3.958v1.891c0,1.891.837,2.572,2.169,2.572s2.17-.681,2.17-2.572c0-1.929-.837-3.366-3.578-5.749C111.965,175.875,110.862,173.681,110.862,170.656Zm13.55-2.572V164.3h12.941v3.782h-4.378v22.692h-4.187V168.084Zm18.612,2.307v14.3c0,1.891.837,2.609,2.169,2.609s2.17-.719,2.17-2.609v-14.3c0-1.891-.838-2.61-2.17-2.61S143.024,168.5,143.024,170.392Zm-4.187,14.03V170.656c0-4.236,2.246-6.656,6.356-6.656s6.356,2.42,6.356,6.656v13.766c0,4.236-2.246,6.656-6.356,6.656S138.837,188.658,138.837,184.422Zm28.433,6.354h-4.263a8.1,8.1,0,0,1-.381-3.252v-4.16c0-2.458-.837-3.366-2.74-3.366h-1.447v10.778h-4.186V164.3h6.318c4.339,0,6.2,2,6.2,6.089v2.08c0,2.724-.875,4.463-2.74,5.333v.075c2.093.87,2.779,2.837,2.779,5.6v4.084A7.75,7.75,0,0,0,167.27,190.776Zm-6.813-22.692h-2.018v8.132h1.637c1.56,0,2.512-.681,2.512-2.8v-2.61C162.588,168.917,161.941,168.084,160.456,168.084Zm12.636,22.692V182l-5.29-17.7h4.377l3.159,12.064h.076l3.159-12.064h4L177.28,182v8.774Z" transform="translate(-50 -164)" fill="#ef4136" fill-rule="evenodd"/></g></g></svg>