<svg xmlns="http://www.w3.org/2000/svg" xmlns:xlink="http://www.w3.org/1999/xlink" width="90" height="90" viewBox="0 0 90 90"><defs><clipPath id="a"><rect width="90" height="90" rx="45" transform="translate(9.114 8.814)" fill="#e4e4e4"/></clipPath></defs><g transform="translate(-9.114 -8.814)" clip-path="url(#a)"><g transform="translate(25.539 25.239)"><g transform="translate(3.575 3.575)" fill="none" stroke="#005897" stroke-width="3"><circle cx="25" cy="25" r="25" stroke="none"/><circle cx="25" cy="25" r="23.5" fill="none"/></g><circle cx="22" cy="22" r="22" transform="translate(6.575 6.575)" fill="rgba(0,88,151,0.3)"/><ellipse cx="3.5" cy="3" rx="3.5" ry="3" transform="translate(39.575 25.575)" fill="#e5e2ff"/><circle cx="1.5" cy="1.5" r="1.5" transform="translate(27.575 13.575)" fill="#e5e2ff"/><ellipse cx="2.5" cy="3" rx="2.5" ry="3" transform="translate(25.575 39.575)" fill="#e5e2ff"/><g transform="translate(9.31 11.444)"><path d="M11.636,33.053l-1.468-.979a5.769,5.769,0,0,1,6.242-2.131c2.953.74,4.4-.6,4.465-.658l1.24,1.256c-.088.088-2.169,2.107-6.132,1.115A4.031,4.031,0,0,0,11.636,33.053Z" transform="translate(-10.168 -14.549)" fill="#5449bf"/><path d="M28.138,41.375c-3.129-2.086-2.173-6.074-2.131-6.243l1.712.429-.856-.214.857.211c-.029.12-.689,2.959,1.4,4.349Z" transform="translate(-12.01 -15.237)" fill="#5449bf"/><path d="M38.284,33.47c-2.294-1.53-5.441-.768-5.471-.761L32.386,31c.159-.04,3.943-.954,6.883,1Z" transform="translate(-12.78 -14.721)" fill="#5449bf"/><path d="M27.957,24.423c-.166-.165-4.017-4.079-1.875-7.291,1.347-2.022.123-3.286.11-3.3l1.248-1.248a4.318,4.318,0,0,1,.11,5.526c-1.324,1.99,1.625,5.03,1.655,5.063Z" transform="translate(-11.963 -12.586)" fill="#5449bf"/></g><g transform="translate(11.809 18.868)"><path d="M13,24h1.765v1.765H13Z" transform="translate(-13 -21.353)" fill="#005897"/><path d="M40,46h1.765v1.765H40Z" transform="translate(-16.174 -23.939)" fill="#005897"/><path d="M45,21h1.765v1.765H45Z" transform="translate(-16.762 -21)" fill="#005897"/><path d="M47,40h1.765v1.765H47Z" transform="translate(-16.997 -23.234)" fill="#005897"/></g><path d="M35.3,34.884A8.628,8.628,0,0,1,30.762,31.8a5.263,5.263,0,0,0,1-3.094c0-.08-.009-.158-.012-.237A12.946,12.946,0,0,1,35.3,26.942c3.53-.882,2.647-5.295,2.647-5.295a4.4,4.4,0,0,1-4.412,2.647,6.5,6.5,0,0,0-3.182.815,5.266,5.266,0,0,0-6.207-1.152,3.688,3.688,0,0,1-2.083-2.31C21.177,19,17.647,19,17.647,19s1.617,2.9.882,5.295c-.431,1.4.636,3.1,2.788,3.219a5.232,5.232,0,0,0,.692,4.034c-1.11.386-2.888,1.551-3.479,5.1C17.647,41.943,15,41.061,15,41.061s5.295,4.412,7.059-2.647c.727-2.912,1.453-4.316,2.057-4.97A5.264,5.264,0,0,0,26.472,34c.163,0,.325-.01.484-.025.525,1.026,3.385,3.089,5.693,3.554A64.832,64.832,0,0,1,39.708,39.3S39.708,35.766,35.3,34.884Z" transform="translate(-1.426 -1.896)" fill="#005897"/><path d="M25,28h1.765v1.765H25Z" transform="translate(-2.602 -2.955)" fill="#e5e2ff"/><path d="M29,30h1.765v1.765H29Z" transform="translate(-3.072 -3.19)" fill="#e5e2ff"/></g></g></svg>