<svg xmlns="http://www.w3.org/2000/svg" xmlns:xlink="http://www.w3.org/1999/xlink" width="90" height="90" viewBox="0 0 90 90"><defs><clipPath id="a"><rect width="90" height="90" rx="45" transform="translate(9.114 8.814)" fill="#e4e4e4"/></clipPath></defs><g transform="translate(-9.114 -8.814)"><g clip-path="url(#a)"><g transform="translate(31.314 21.905)"><path d="M184.11,155.828a7.146,7.146,0,0,1,8,9.178,24.921,24.921,0,0,1-2.069,3.828c-.484.367-6.988,1.737-9.07-.655a24.677,24.677,0,0,1-3.566-6.469Zm0,0" transform="translate(-155.102 -136.153)" fill="rgba(0,88,151,0.3)"/><path d="M122.5,38.092c-1.849-3.886-5.077-6.46-8.75-6.46-4.411,0-8.181,3.714-9.691,8.955v8.746l7.47,3.583Zm0,0" transform="translate(-90.979 -27.656)" fill="rgba(0,88,151,0.3)"/><path d="M154.7,99.926s-.151-12.472,11.6-12.072V83.065S146.84,81.458,146.84,96.427Zm0,0" transform="translate(-128.378 -72.578)" fill="#e5e2ff"/><path d="M57.23,75.153V63.1a1.6,1.6,0,0,0-1.6-1.6H52.217a1.6,1.6,0,0,0-1.6,1.6V76.589Zm0,0" transform="translate(-44.252 -53.769)" fill="#e5e2ff"/><path d="M38.776,177.89s-2.2-2.2-9.735-3.03c-5.969-5.694-11.663-6.429-16.071-1.4S9.8,187.441,11.959,191.023c1.195,3.175,1.567,5.42,4.827,9.253a32.318,32.318,0,0,0,17.207,10.47l3.332.786a10.915,10.915,0,0,0,8.947-1.809l.85-.621a15.488,15.488,0,0,0,6.312-11.4,25.009,25.009,0,0,0-2.112-12l-.928-2.076a10.125,10.125,0,0,0-11.288-5.817q-.164.034-.33.072Zm0,0" transform="translate(-8.743 -148.714)" fill="rgba(0,88,151,0.3)"/><path d="M335.058,301.328l0,.008a1.245,1.245,0,1,0,0-.008Zm0,0" transform="translate(-292.837 -261.893)" fill="#005897"/><path d="M45.69,43.1a1.257,1.257,0,0,0-2.483.393,23.807,23.807,0,0,1,.23,5.41,14.205,14.205,0,0,1-5.8,10.471l-.85.621a9.659,9.659,0,0,1-7.916,1.6l-3.331-.787A31.27,31.27,0,0,1,9,50.747a18.106,18.106,0,0,1-3.376-5.469,1.25,1.25,0,0,0,.046-.535c-.007-.054-.626-5.484,7.032-8.97a17.737,17.737,0,0,0,8.563-8.241c5.757.795,7.739,2.415,7.886,2.542a1.179,1.179,0,0,0,1.157.328l.311-.068a8.906,8.906,0,0,1,9.882,5.1,1.257,1.257,0,1,0,2.3-1.026,11.518,11.518,0,0,0-4.594-5.167.13.13,0,0,1,0-.013,8.4,8.4,0,0,0,.382-2.51c0-.171-.007-.341-.017-.51h.872a1.257,1.257,0,0,0,0-2.514H38.026a8.4,8.4,0,0,0-1.332-2.285l.569-.569a1.257,1.257,0,0,0-1.778-1.778l-.658.658a8.35,8.35,0,0,0-3.46-1.315,9.6,9.6,0,0,1,6.521-1.872,1.257,1.257,0,0,0,1.3-1.256V10.487a1.257,1.257,0,0,0-1.154-1.253,30.329,30.329,0,0,0-5.619.172A12.7,12.7,0,0,0,26.9,3.7l.89-1.328a1.257,1.257,0,0,0-2.089-1.4l-1.274,1.9a8.984,8.984,0,0,0-2.62-.1V1.257a1.257,1.257,0,0,0-2.514,0v2.15A10.782,10.782,0,0,0,15.98,5.573a13.6,13.6,0,0,0-2.053,2.471,2.86,2.86,0,0,0-2.549-1.57H7.965A2.86,2.86,0,0,0,5.108,9.332V22.183a13.232,13.232,0,0,0-1.826,1.733C.526,27.059-.023,31.178,0,34.08a18.818,18.818,0,0,0,2.076,8.774c.19.508.36,1,.525,1.472a21.614,21.614,0,0,0,4.482,8.049A33.8,33.8,0,0,0,24.962,63.255l3.331.787a12.174,12.174,0,0,0,9.977-2.017l.85-.621a16.714,16.714,0,0,0,6.825-12.321A26.3,26.3,0,0,0,45.69,43.1ZM30.348,27.825a12.292,12.292,0,0,0-2.721-1.359,14.005,14.005,0,0,1,1.636-5.558,6,6,0,0,1,.93-.074,5.886,5.886,0,0,1,5.7,7.354,11.289,11.289,0,0,0-5.543-.364ZM36.674,11.7v2.326a11.253,11.253,0,0,0-7.651,3.1,14.515,14.515,0,0,0-3.846,8.592,35.015,35.015,0,0,0-4.321-.772q-.573-.531-1.142-1c0-.03,0-.06,0-.091a10.5,10.5,0,0,1,3.243-8.08c4.092-3.774,10.99-4.1,13.712-4.071Zm-13.9-6.465A6.6,6.6,0,0,1,24.63,5.5h0a9.222,9.222,0,0,1,5.152,4.341,18.152,18.152,0,0,0-8.519,4.07,12.5,12.5,0,0,0-3.979,8.261,14.862,14.862,0,0,0-3.051-1.469V13.436a1.375,1.375,0,0,0,.057-.156c1.386-4.813,4.8-8.046,8.483-8.046ZM7.622,9.332a.343.343,0,0,1,.343-.343h3.413a.343.343,0,0,1,.343.343V20.164a9.5,9.5,0,0,0-1.255-.028,8.879,8.879,0,0,0-2.843.6ZM5.172,25.574a7.639,7.639,0,0,1,5.4-2.925c2.5-.112,5.379,1.247,8.347,3.937a15.405,15.405,0,0,1-7.263,6.9C6.85,35.674,4.8,38.645,3.921,40.751l-.043.106c-1.589-3.521-2.444-11.02,1.295-15.284Zm0,0" transform="translate(0 0)" fill="#005897"/><path d="M112.5,400.154a1.257,1.257,0,1,0-1.605,1.935,28.968,28.968,0,0,0,11.778,5.866,1.257,1.257,0,0,0,.578-2.447,26.446,26.446,0,0,1-10.751-5.354Zm0,0" transform="translate(-96.551 -349.595)" fill="#005897"/><path d="M84.837,374.511a1.267,1.267,0,1,0,1.8.16l-.026-.03A1.261,1.261,0,0,0,84.837,374.511Zm0,0" transform="translate(-73.789 -327.161)" fill="#005897"/></g></g></g></svg>