<svg xmlns="http://www.w3.org/2000/svg" xmlns:xlink="http://www.w3.org/1999/xlink" width="170" height="170" viewBox="0 0 170 170"><defs><filter id="a" x="0" y="0" width="170" height="170" filterUnits="userSpaceOnUse"><feOffset dy="12" input="SourceAlpha"/><feGaussianBlur stdDeviation="15" result="b"/><feFlood flood-color="#005897" flood-opacity="0.059"/><feComposite operator="in" in2="b"/><feComposite in="SourceGraphic"/></filter><linearGradient id="c" x1="0.908" y1="-0.044" x2="0.375" y2="0.802" gradientUnits="objectBoundingBox"><stop offset="0" stop-color="#005897" stop-opacity="0.102"/><stop offset="1" stop-color="#005897"/></linearGradient></defs><g transform="translate(45 33)"><g transform="matrix(1, 0, 0, 1, -45, -33)" filter="url(#a)"><rect width="80" height="80" rx="40" transform="translate(45 33)" fill="#fff"/></g><g transform="translate(25 3.64)"><path d="M8.445,26.3a3.944,3.944,0,1,1,3.944,3.944A3.944,3.944,0,0,1,8.445,26.3Zm5.84,6.631a4.269,4.269,0,0,1,.811-2.311,5.031,5.031,0,0,0-1.033-.107H10.716a5.055,5.055,0,0,0-1.03.106,4.279,4.279,0,0,1,.814,2.488,4.305,4.305,0,0,1,3.784-.176Zm.668.354a4.5,4.5,0,0,1,2.1,3.345,3.632,3.632,0,1,0-2.1-3.345ZM12.571,40.73A3.634,3.634,0,1,0,8.937,37.1,3.634,3.634,0,0,0,12.571,40.73Zm1.541.247H11.029A4.659,4.659,0,0,0,6.376,45.63V49.4l.01.059.26.081a21.191,21.191,0,0,0,6.326,1.02A12.984,12.984,0,0,0,18.5,49.524l.243-.123h.026V45.63A4.658,4.658,0,0,0,14.113,40.977Zm6.013-3.751h-3.06a4.479,4.479,0,0,1-1.382,3.119,5.529,5.529,0,0,1,3.949,5.291V46.8a12.527,12.527,0,0,0,4.876-1.025l.243-.124h.026V41.878A4.657,4.657,0,0,0,20.125,37.226Zm.818-7.593a4.5,4.5,0,0,1,2.1,3.345,3.632,3.632,0,1,0-2.1-3.345Zm5.173,3.937H23.056a4.479,4.479,0,0,1-1.382,3.119,5.528,5.528,0,0,1,3.949,5.291v1.162A12.515,12.515,0,0,0,30.5,42.117l.243-.123h.026V38.221A4.658,4.658,0,0,0,26.116,33.569ZM6.2,36.978a3.61,3.61,0,0,0,1.933-.561,4.5,4.5,0,0,1,1.691-2.868c0-.068.01-.136.01-.2A3.634,3.634,0,1,0,6.2,36.978Zm3.263,3.367a4.483,4.483,0,0,1-1.382-3.1c-.113-.008-.225-.017-.341-.017H4.653A4.658,4.658,0,0,0,0,41.878V45.65l.01.059.26.081a21.723,21.723,0,0,0,5.24.985V45.635A5.528,5.528,0,0,1,9.459,40.345Z" fill="url(#c)"/></g></g></svg>