<svg xmlns="http://www.w3.org/2000/svg" xmlns:xlink="http://www.w3.org/1999/xlink" width="170" height="170" viewBox="0 0 170 170"><defs><filter id="a" x="0" y="0" width="170" height="170" filterUnits="userSpaceOnUse"><feOffset dy="12" input="SourceAlpha"/><feGaussianBlur stdDeviation="15" result="b"/><feFlood flood-color="#005897" flood-opacity="0.059"/><feComposite operator="in" in2="b"/><feComposite in="SourceGraphic"/></filter><linearGradient id="c" x1="1.098" y1="-0.125" x2="0.054" y2="0.967" gradientUnits="objectBoundingBox"><stop offset="0" stop-color="#005897" stop-opacity="0.122"/><stop offset="1" stop-color="#005897"/></linearGradient></defs><g transform="translate(45 33)"><g transform="matrix(1, 0, 0, 1, -45, -33)" filter="url(#a)"><rect width="80" height="80" rx="40" transform="translate(45 33)" fill="#fff"/></g><g transform="translate(25 10.898)"><g transform="translate(0 20.938)"><path d="M26.187,89.459H4.333A4.073,4.073,0,0,0,0,93.792v13.646a4.073,4.073,0,0,0,4.333,4.333H26.187a4.073,4.073,0,0,0,4.333-4.333V93.792A4.07,4.07,0,0,0,26.187,89.459ZM21.54,102.283a.936.936,0,0,1-.936.936H18.042v2.562a.936.936,0,0,1-.936.936H13.414a.936.936,0,0,1-.936-.936v-2.562H9.922a.936.936,0,0,1-.942-.929V98.6a.936.936,0,0,1,.936-.936h2.562V95.1a.936.936,0,0,1,.936-.936H17.1a.936.936,0,0,1,.936.936v2.562H20.6a.936.936,0,0,1,.942.929v3.693Z" transform="translate(0 -89.459)" fill="url(#c)"/></g><g transform="translate(9.499 15.101)"><path d="M130.8,15.1a1.818,1.818,0,0,0-.207,0h-7.661a1.827,1.827,0,0,0-1.928,1.928v2.826h1.256l.006-2.826a.589.589,0,0,1,.672-.672h7.655c.672,0,.672.484.672.672v2.826h1.256V17.032A1.827,1.827,0,0,0,130.8,15.1Z" transform="translate(-121.003 -15.101)" fill="url(#c)"/></g></g></g></svg>