<svg xmlns="http://www.w3.org/2000/svg" xmlns:xlink="http://www.w3.org/1999/xlink" width="170" height="170" viewBox="0 0 170 170"><defs><filter id="a" x="0" y="0" width="170" height="170" filterUnits="userSpaceOnUse"><feOffset dy="12" input="SourceAlpha"/><feGaussianBlur stdDeviation="15" result="b"/><feFlood flood-color="#005897" flood-opacity="0.059"/><feComposite operator="in" in2="b"/><feComposite in="SourceGraphic"/></filter><linearGradient id="c" x1="1" y1="0.211" x2="0.442" y2="0.668" gradientUnits="objectBoundingBox"><stop offset="0" stop-color="#005897" stop-opacity="0.102"/><stop offset="1" stop-color="#005897"/></linearGradient></defs><g transform="translate(45 33)"><g transform="matrix(1, 0, 0, 1, -45, -33)" filter="url(#a)"><rect width="80" height="80" rx="40" transform="translate(45 33)" fill="#fff"/></g><g transform="translate(-51 19)"><path d="M93.507,42.684a7.583,7.583,0,0,0,7.5-7.586v-.127a6.253,6.253,0,1,0-2.5,0V35.1a5,5,0,1,1-10,0V22.466a11.23,11.23,0,0,0,10-11.128V3.752A3.756,3.756,0,0,0,94.758,0H91.006V2.5h3.752a1.251,1.251,0,0,1,1.251,1.251v7.586a8.754,8.754,0,0,1-17.507,0V3.752A1.251,1.251,0,0,1,79.752,2.5H83.5V0H79.752A3.756,3.756,0,0,0,76,3.752v7.586A11.23,11.23,0,0,0,86,22.466V35.1A7.583,7.583,0,0,0,93.507,42.684Z" transform="translate(0 0)" fill="url(#c)"/></g></g></svg>