<svg xmlns="http://www.w3.org/2000/svg" xmlns:xlink="http://www.w3.org/1999/xlink" width="90" height="90" viewBox="0 0 90 90"><defs><clipPath id="a"><rect width="90" height="90" rx="45" transform="translate(9.114 8.814)" fill="#e4e4e4"/></clipPath></defs><g transform="translate(-9.114 -8.814)" clip-path="url(#a)"><g transform="translate(-3 0.465)"><path d="M47.983,34.264l1.388,3.561,5.731-2.9,1.328,3.86-6.758,2.535.725,3.62,7.24-1.87-.6,4.283-7.361-.483-.979,3.654,7.635.687-1.346,4.036-7.937-1.016-1.125,4.806H54.79v3.6l-9.254.851,1.84,4.654,8.212-2.924.293,1.846.036.227-6.454,5.19,1.291.8h1.181l1.594.467,1.262,1.84,2.335,1.428,2.774.3,3.487.246.879.935-.879-2.911-2.664-1.016L58.2,73.5l.659-1.785L60.531,70.4l-2.061-2.253,1.208-1.785.853-1.537-1.373-1.1H57.125l-1.7.3-.384-6.151.384-1.661,1.429-6.7.787-7.676-2.736-9.1-.907-1.564Z" fill="rgba(0,88,151,0.3)"/><path d="M44.818,46.92l-.62-.413-.069-.138a3.428,3.428,0,0,0-4.706-1.5,5.949,5.949,0,0,0-.933-1.233l.751-.751a2.447,2.447,0,0,0,.722-1.743v-.427A2.47,2.47,0,0,0,37.5,38.246a2.5,2.5,0,0,0-.6.074l-2.105.526c-.064-.549-.1-1.1-.124-1.652l2.268-.453a2.666,2.666,0,0,0,2.14-2.609v-.319a2.664,2.664,0,0,0-2.66-2.66H35.261c.082-.342.168-.684.266-1.022l3.214-.536A2.515,2.515,0,0,0,40.849,27.1a2.548,2.548,0,0,0-.266-1.129l-.262-.522a2.51,2.51,0,0,0-2.258-1.4H37.032c.048-.333.075-.669.11-1l2.531-.517a2.566,2.566,0,0,0,1.791-3.664l-.245-.49a2.553,2.553,0,0,0-2.3-1.419H37.079c-.089-.686-.208-1.368-.35-2.046l1.406-.352a2.409,2.409,0,0,0,1.828-2.341v-.83a2.412,2.412,0,0,0-3.184-2.286L35.061,9.7c-.173-.394-.351-.787-.543-1.171l-.427-.852,2.317-.927A2.827,2.827,0,0,0,37.89,2.854l-.167-.333A2.733,2.733,0,0,0,35.263,1a2.761,2.761,0,0,0-1.65.551L31.384,3.223a2.969,2.969,0,0,0-2.9-.137l-1.874.937a3.119,3.119,0,0,0-1.537,3.857L27.6,14.831a13.819,13.819,0,0,1-.089,9.681l-2.286,5.944a18.4,18.4,0,0,0,2.2,17.307l.64.9a2.665,2.665,0,0,0,2.164,1.114,2.62,2.62,0,0,1,2.087,1.044l.461.615a5.34,5.34,0,0,0,3.669,2.1l4.1.456a2.748,2.748,0,0,1,2.162,1.508l.45.9,1.651-1.1a5.029,5.029,0,0,0,0-8.37Zm-7.491-6.879a.7.7,0,0,1,.862.671v.427a.686.686,0,0,1-.2.49l-.928.928a6.043,6.043,0,0,0-1.375-.531l-.31-.077-.071-.284c-.088-.351-.161-.705-.231-1.06ZM25.774,37.065c0-.5.024-.989.067-1.479h7.053c-.007.239-.026.476-.026.716,0,.38.017.759.035,1.139l-7.087.709C25.792,37.789,25.774,37.428,25.774,37.065Zm7.52-5.171q-.18.954-.28,1.918H26.1a16.518,16.518,0,0,1,.752-2.634ZM32.932,9.318c.114.229.215.463.322.7l-4.668,2.334-.754-2.074,4.462-2.231Zm-3.663,4.907-.073-.2,4.746-2.373c.283.752.525,1.518.733,2.3L29.7,15.607C29.574,15.141,29.434,14.68,29.269,14.225Zm.878,6.67,5.368-1.074c0,.166.014.331.014.5,0,.657-.032,1.312-.084,1.966H29.963c.082-.459.144-.922.184-1.389Zm5.264-2.862-5.224,1.045a15.788,15.788,0,0,0-.147-1.715l5.037-1.679Q35.3,16.849,35.411,18.033Zm-6.241,7.117c.138-.36.253-.726.364-1.093h5.7c-.114.734-.269,1.462-.448,2.184L29,25.6Zm3.877,14.059c.049.4.114.8.184,1.2l-6.582,1.975a16.435,16.435,0,0,1-.624-2.468Zm3.369-6.283a.888.888,0,0,1,.887.887v.319a.889.889,0,0,1-.713.87l-1.914.383a22.157,22.157,0,0,1,.231-2.459Zm1.649-7.094a.745.745,0,0,1,.671.415l.262.522a.764.764,0,0,1,.079.336.747.747,0,0,1-.628.74l-2.362.394.1-.344c.2-.681.374-1.37.522-2.064Zm.86-7.094a.789.789,0,0,1,.709.438l.246.491a.792.792,0,0,1-.558,1.132l-2.052.419c.011-.3.033-.6.033-.9,0-.528-.018-1.054-.05-1.581Zm-1.577-7.948a.653.653,0,0,1,.842.607v.83a.638.638,0,0,1-.484.62l-1.4.349c-.175-.623-.364-1.241-.583-1.849Zm-2.67-7.819a1.007,1.007,0,0,1,1.461.345l.167.333a1.06,1.06,0,0,1,.111.472,1.049,1.049,0,0,1-.664.98L33.3,6.081l-.756-1.51ZM27.4,5.61l1.874-.937a1.216,1.216,0,0,1,1.6.532L31.5,6.457,27.222,8.6l-.481-1.322A1.346,1.346,0,0,1,27.4,5.61Zm.934,21.7,5.976.664-.439,1.464c-.071.237-.123.478-.187.717l-6.18-.687ZM27.312,44.031l6.282-1.884.054.216-4.892,4.194A16.707,16.707,0,0,1,27.312,44.031Zm9.334,7.734a3.562,3.562,0,0,1-2.446-1.4l-.461-.615A4.4,4.4,0,0,0,30.233,48a.894.894,0,0,1-.348-.076l4.985-4.273.382.1a4.2,4.2,0,0,1,2.782,2.267l-.954.955a2.249,2.249,0,0,0-.665,1.6,2.283,2.283,0,0,0,1.949,2.248l.63.09a4.218,4.218,0,0,1,2.652,1.5,4.562,4.562,0,0,0-.9-.194Zm7.54,1.774a6.033,6.033,0,0,0-4.94-4.383l-.63-.09a.5.5,0,0,1-.282-.843L39.7,46.854l.132-.132a1.705,1.705,0,0,1,1.2-.495,1.681,1.681,0,0,1,1.512.935l.279.56,1.012.675a3.252,3.252,0,0,1,.353,5.143Z" transform="translate(21.114 24.35)" fill="#005897"/></g></g></svg>